# xmcd
#
# Track frame offsets:
#	150
#	15782
#	32573
#	51370
#	69852
#	88545
#	103216
#	122479
#	141058
#	159412
#	178531
#	196194
#	213813
#	232105
#	248984
#	267295
#	285075
#	302434
#	320762
#	339445
#
# Disc length: 4744
#
# Revision: 2
# Processed by: cddbd v1.5.1PL0 Copyright (c) Steve Scherf et al.
# Submitted via: FreeRIP 2.60 
# Normalized: r1:DSETVAR1,TDELIM( - )
#
DISCID=06128614
DTITLE=Various Artist - Promo Only Urban Radio August 2001
DYEAR=2001
DGENRE=Hip-Hop
TTITLE0=Hi-Tek - Round and Round (Clean)
TTITLE1=Luther Vandross - Take You Out (Remix)
TTITLE2=Krayzie Bone - Hard Time Hustlin' (Clean)
TTITLE3=Sisqo - Dance For Me
TTITLE4=P. Diddy and Family - Bad Boy For Life
TTITLE5=Lil' Bow Wow - Ghetto Girls
TTITLE6=Fabolous (Ft. Nate Dogg) - Can't Deny It
TTITLE7=Trick Daddy - I'm A Thug (New Modified Edit)
TTITLE8=Brian McKnight - Love Of My Life
TTITLE9=Big Pun (Ft. Tony Sunshine) - Mama
TTITLE10=Res - Sittin' Back
TTITLE11=Product G&B, The - Cluck Cluck (Henhouse Mix)
TTITLE12=Tamia - Tell Me Who (Mike Rizzo Radio Mix)
TTITLE13=IMX (Ft. Mila J.) - Clap Your Hands (Radio Edit With Rap)
TTITLE14=Sunshine Anderson - Lunch Or Dinner
TTITLE15=Snoop Dogg (Ft. Tyrese and Mr. Tan) - Just A Baby Boy
TTITLE16=Christina Milian - AM To PM
TTITLE17=Ruff Endz - Cash, Money, Cars, Clothes
TTITLE18=Jaheim - Just In Case
TTITLE19=Merciless R.N.S., The (Ft. Jasmine Lopez) - Tonight's The Night
EXTD=
EXTT0=
EXTT1=
EXTT2=
EXTT3=
EXTT4=
EXTT5=
EXTT6=
EXTT7=
EXTT8=
EXTT9=
EXTT10=
EXTT11=
EXTT12=
EXTT13=
EXTT14=
EXTT15=
EXTT16=
EXTT17=
EXTT18=
EXTT19=
PLAYORDER=
